<svg width="100%" viewBox="0 0 690 370" role="img" xmlns="http://www.w3.org/2000/svg" style="">
<title style="fill:rgb(0, 0, 0);stroke:none;color:rgb(255, 255, 255);stroke-width:1px;stroke-linecap:butt;stroke-linejoin:miter;opacity:1;font-family:&quot;Anthropic Sans&quot;, -apple-system, &quot;system-ui&quot;, &quot;Segoe UI&quot;, sans-serif;font-size:16px;font-weight:400;text-anchor:start;dominant-baseline:auto">3rd Year – Quantum Harmonic Oscillator</title>
<desc style="fill:rgb(0, 0, 0);stroke:none;color:rgb(255, 255, 255);stroke-width:1px;stroke-linecap:butt;stroke-linejoin:miter;opacity:1;font-family:&quot;Anthropic Sans&quot;, -apple-system, &quot;system-ui&quot;, &quot;Segoe UI&quot;, sans-serif;font-size:16px;font-weight:400;text-anchor:start;dominant-baseline:auto">Energy levels and wavefunctions of the quantum harmonic oscillator, coloured, minimal labels</desc>
<defs>
  <marker id="arr" viewBox="0 0 10 10" refX="9" refY="5" markerWidth="5" markerHeight="5" orient="auto-start-reverse">
    <path d="M1 1L9 5L1 9" fill="#1a1a1a" stroke="none"/>
  </marker>
<mask id="imagine-text-gaps-pju3d9" maskUnits="userSpaceOnUse"><rect x="0" y="0" width="690" height="370" fill="white"/><rect x="65.76513671875" y="12" width="17.04541015625" height="19" fill="black" rx="2"/><rect x="82" y="281" width="30.1640625" height="17.5" fill="black" rx="2"/><rect x="82" y="231" width="27.953125" height="17.5" fill="black" rx="2"/><rect x="82" y="181" width="29.5" height="17.5" fill="black" rx="2"/><rect x="82" y="131" width="29.421875" height="17.5" fill="black" rx="2"/><rect x="82" y="81" width="29.578125" height="17.5" fill="black" rx="2"/><rect x="94" y="297" width="31.796875" height="15" fill="black" rx="2"/><rect x="303.58203125" y="332" width="72.8359375" height="21.5" fill="black" rx="2"/></mask></defs>
<rect width="680" height="360" fill="#f9f8f5" style="fill:rgb(249, 248, 245);stroke:none;color:rgb(255, 255, 255);stroke-width:1px;stroke-linecap:butt;stroke-linejoin:miter;opacity:1;font-family:&quot;Anthropic Sans&quot;, -apple-system, &quot;system-ui&quot;, &quot;Segoe UI&quot;, sans-serif;font-size:16px;font-weight:400;text-anchor:start;dominant-baseline:auto"/>

<!-- Parabolic potential well V(x) = ½mω²x² -->
<path d="M 120 310 Q 340 30 560 310" fill="none" stroke="#bbb" stroke-width="1.4" stroke-dasharray="6,4" mask="url(#imagine-text-gaps-pju3d9)" style="fill:none;stroke:rgb(187, 187, 187);color:rgb(255, 255, 255);stroke-width:1.4px;stroke-dasharray:6px, 4px;stroke-linecap:butt;stroke-linejoin:miter;opacity:1;font-family:&quot;Anthropic Sans&quot;, -apple-system, &quot;system-ui&quot;, &quot;Segoe UI&quot;, sans-serif;font-size:16px;font-weight:400;text-anchor:start;dominant-baseline:auto"/>

<!-- Axis -->
<line x1="80" y1="320" x2="80" y2="30" stroke="#1a1a1a" stroke-width="1" marker-end="url(#arr)" mask="url(#imagine-text-gaps-pju3d9)" style="fill:rgb(0, 0, 0);stroke:rgb(26, 26, 26);color:rgb(255, 255, 255);stroke-width:1px;stroke-linecap:butt;stroke-linejoin:miter;opacity:1;font-family:&quot;Anthropic Sans&quot;, -apple-system, &quot;system-ui&quot;, &quot;Segoe UI&quot;, sans-serif;font-size:16px;font-weight:400;text-anchor:start;dominant-baseline:auto"/>
<text x="70" y="26" font-family="Georgia, serif" font-size="13" fill="#1a1a1a" font-style="italic" style="fill:rgb(26, 26, 26);stroke:none;color:rgb(255, 255, 255);stroke-width:1px;stroke-linecap:butt;stroke-linejoin:miter;opacity:1;font-family:Georgia, serif;font-size:13px;font-weight:400;font-style:italic;text-anchor:start;dominant-baseline:auto">E</text>

<!-- Energy level colours -->
<!-- n=0: y=290, n=1: y=240, n=2: y=190, n=3: y=140, n=4: y=90 -->

<!-- n=0 level line -->
<line x1="218" y1="290" x2="462" y2="290" stroke="#2563a8" stroke-width="1.3" style="fill:rgb(0, 0, 0);stroke:rgb(37, 99, 168);color:rgb(255, 255, 255);stroke-width:1.3px;stroke-linecap:butt;stroke-linejoin:miter;opacity:1;font-family:&quot;Anthropic Sans&quot;, -apple-system, &quot;system-ui&quot;, &quot;Segoe UI&quot;, sans-serif;font-size:16px;font-weight:400;text-anchor:start;dominant-baseline:auto"/>
<text x="86" y="294" font-family="Georgia, serif" font-size="12" fill="#2563a8" font-style="italic" style="fill:rgb(37, 99, 168);stroke:none;color:rgb(255, 255, 255);stroke-width:1px;stroke-linecap:butt;stroke-linejoin:miter;opacity:1;font-family:Georgia, serif;font-size:12px;font-weight:400;font-style:italic;text-anchor:start;dominant-baseline:auto">n=0</text>
<!-- n=0 wavefunction: Gaussian -->
<path d="M 220 290 C 255 290 265 240 280 250 C 295 260 300 260 310 250 C 320 240 330 240 340 232 C 350 240 360 240 370 250 C 380 260 385 260 400 250 C 415 240 425 290 460 290" fill="none" stroke="#2563a8" stroke-width="1.4" style="fill:none;stroke:rgb(37, 99, 168);color:rgb(255, 255, 255);stroke-width:1.4px;stroke-linecap:butt;stroke-linejoin:miter;opacity:1;font-family:&quot;Anthropic Sans&quot;, -apple-system, &quot;system-ui&quot;, &quot;Segoe UI&quot;, sans-serif;font-size:16px;font-weight:400;text-anchor:start;dominant-baseline:auto"/>

<!-- n=1 level line -->
<line x1="188" y1="240" x2="492" y2="240" stroke="#1a7a5e" stroke-width="1.3" style="fill:rgb(0, 0, 0);stroke:rgb(26, 122, 94);color:rgb(255, 255, 255);stroke-width:1.3px;stroke-linecap:butt;stroke-linejoin:miter;opacity:1;font-family:&quot;Anthropic Sans&quot;, -apple-system, &quot;system-ui&quot;, &quot;Segoe UI&quot;, sans-serif;font-size:16px;font-weight:400;text-anchor:start;dominant-baseline:auto"/>
<text x="86" y="244" font-family="Georgia, serif" font-size="12" fill="#1a7a5e" font-style="italic" style="fill:rgb(26, 122, 94);stroke:none;color:rgb(255, 255, 255);stroke-width:1px;stroke-linecap:butt;stroke-linejoin:miter;opacity:1;font-family:Georgia, serif;font-size:12px;font-weight:400;font-style:italic;text-anchor:start;dominant-baseline:auto">n=1</text>
<!-- n=1 wavefunction: one node -->
<path d="M 192 240 C 220 240 230 200 250 195 C 265 190 275 195 295 210 C 305 218 315 220 330 220 C 345 220 355 218 365 210 C 385 195 405 190 420 195 C 440 200 450 240 488 240" fill="none" stroke="#1a7a5e" stroke-width="1.4" style="fill:none;stroke:rgb(26, 122, 94);color:rgb(255, 255, 255);stroke-width:1.4px;stroke-linecap:butt;stroke-linejoin:miter;opacity:1;font-family:&quot;Anthropic Sans&quot;, -apple-system, &quot;system-ui&quot;, &quot;Segoe UI&quot;, sans-serif;font-size:16px;font-weight:400;text-anchor:start;dominant-baseline:auto"/>

<!-- n=2 level line -->
<line x1="158" y1="190" x2="522" y2="190" stroke="#c0622a" stroke-width="1.3" style="fill:rgb(0, 0, 0);stroke:rgb(192, 98, 42);color:rgb(255, 255, 255);stroke-width:1.3px;stroke-linecap:butt;stroke-linejoin:miter;opacity:1;font-family:&quot;Anthropic Sans&quot;, -apple-system, &quot;system-ui&quot;, &quot;Segoe UI&quot;, sans-serif;font-size:16px;font-weight:400;text-anchor:start;dominant-baseline:auto"/>
<text x="86" y="194" font-family="Georgia, serif" font-size="12" fill="#c0622a" font-style="italic" style="fill:rgb(192, 98, 42);stroke:none;color:rgb(255, 255, 255);stroke-width:1px;stroke-linecap:butt;stroke-linejoin:miter;opacity:1;font-family:Georgia, serif;font-size:12px;font-weight:400;font-style:italic;text-anchor:start;dominant-baseline:auto">n=2</text>
<!-- n=2 wavefunction: two nodes -->
<path d="M 162 190 C 185 190 195 158 215 152 C 230 148 240 155 255 168 C 268 178 278 182 295 182 C 310 182 322 175 335 168 C 348 161 360 162 370 168 C 383 175 395 182 410 182 C 427 182 437 178 450 168 C 465 155 475 148 490 152 C 510 158 520 190 520 190" fill="none" stroke="#c0622a" stroke-width="1.4" style="fill:none;stroke:rgb(192, 98, 42);color:rgb(255, 255, 255);stroke-width:1.4px;stroke-linecap:butt;stroke-linejoin:miter;opacity:1;font-family:&quot;Anthropic Sans&quot;, -apple-system, &quot;system-ui&quot;, &quot;Segoe UI&quot;, sans-serif;font-size:16px;font-weight:400;text-anchor:start;dominant-baseline:auto"/>

<!-- n=3 level line -->
<line x1="128" y1="140" x2="552" y2="140" stroke="#7a3a9a" stroke-width="1.3" style="fill:rgb(0, 0, 0);stroke:rgb(122, 58, 154);color:rgb(255, 255, 255);stroke-width:1.3px;stroke-linecap:butt;stroke-linejoin:miter;opacity:1;font-family:&quot;Anthropic Sans&quot;, -apple-system, &quot;system-ui&quot;, &quot;Segoe UI&quot;, sans-serif;font-size:16px;font-weight:400;text-anchor:start;dominant-baseline:auto"/>
<text x="86" y="144" font-family="Georgia, serif" font-size="12" fill="#7a3a9a" font-style="italic" style="fill:rgb(122, 58, 154);stroke:none;color:rgb(255, 255, 255);stroke-width:1px;stroke-linecap:butt;stroke-linejoin:miter;opacity:1;font-family:Georgia, serif;font-size:12px;font-weight:400;font-style:italic;text-anchor:start;dominant-baseline:auto">n=3</text>
<!-- n=3 wavefunction: three nodes -->
<path d="M 132 140 C 148 140 158 116 172 110 C 184 105 194 112 206 124 C 216 133 226 137 242 137 C 256 137 266 130 278 122 C 290 114 302 113 316 116 C 328 119 336 124 348 124 C 360 124 368 119 380 116 C 394 113 406 114 418 122 C 430 130 440 137 454 137 C 470 137 480 133 490 124 C 502 112 512 105 524 110 C 538 116 548 140 550 140" fill="none" stroke="#7a3a9a" stroke-width="1.4" style="fill:none;stroke:rgb(122, 58, 154);color:rgb(255, 255, 255);stroke-width:1.4px;stroke-linecap:butt;stroke-linejoin:miter;opacity:1;font-family:&quot;Anthropic Sans&quot;, -apple-system, &quot;system-ui&quot;, &quot;Segoe UI&quot;, sans-serif;font-size:16px;font-weight:400;text-anchor:start;dominant-baseline:auto"/>

<!-- n=4 level line -->
<line x1="100" y1="90" x2="580" y2="90" stroke="#a83030" stroke-width="1.3" mask="url(#imagine-text-gaps-pju3d9)" style="fill:rgb(0, 0, 0);stroke:rgb(168, 48, 48);color:rgb(255, 255, 255);stroke-width:1.3px;stroke-linecap:butt;stroke-linejoin:miter;opacity:1;font-family:&quot;Anthropic Sans&quot;, -apple-system, &quot;system-ui&quot;, &quot;Segoe UI&quot;, sans-serif;font-size:16px;font-weight:400;text-anchor:start;dominant-baseline:auto"/>
<text x="86" y="94" font-family="Georgia, serif" font-size="12" fill="#a83030" font-style="italic" style="fill:rgb(168, 48, 48);stroke:none;color:rgb(255, 255, 255);stroke-width:1px;stroke-linecap:butt;stroke-linejoin:miter;opacity:1;font-family:Georgia, serif;font-size:12px;font-weight:400;font-style:italic;text-anchor:start;dominant-baseline:auto">n=4</text>
<!-- n=4 wavefunction: four nodes, simplified -->
<path d="M 104 90 C 118 90 126 70 140 65 C 152 61 162 68 172 78 C 181 86 191 89 204 89 C 217 89 226 83 236 76 C 247 68 258 65 270 67 C 281 69 288 75 298 78 C 308 81 318 81 328 78 C 338 75 348 69 359 67 C 371 65 382 68 393 76 C 403 83 412 89 425 89 C 438 89 448 86 457 78 C 467 68 477 61 489 65 C 503 70 511 90 525 90" fill="none" stroke="#a83030" stroke-width="1.4" mask="url(#imagine-text-gaps-pju3d9)" style="fill:none;stroke:rgb(168, 48, 48);color:rgb(255, 255, 255);stroke-width:1.4px;stroke-linecap:butt;stroke-linejoin:miter;opacity:1;font-family:&quot;Anthropic Sans&quot;, -apple-system, &quot;system-ui&quot;, &quot;Segoe UI&quot;, sans-serif;font-size:16px;font-weight:400;text-anchor:start;dominant-baseline:auto"/>

<!-- Zero-point energy brace hint -->
<line x1="94" y1="290" x2="94" y2="320" stroke="#2563a8" stroke-width="0.9" stroke-dasharray="3,2" mask="url(#imagine-text-gaps-pju3d9)" style="fill:rgb(0, 0, 0);stroke:rgb(37, 99, 168);color:rgb(255, 255, 255);stroke-width:0.9px;stroke-dasharray:3px, 2px;stroke-linecap:butt;stroke-linejoin:miter;opacity:1;font-family:&quot;Anthropic Sans&quot;, -apple-system, &quot;system-ui&quot;, &quot;Segoe UI&quot;, sans-serif;font-size:16px;font-weight:400;text-anchor:start;dominant-baseline:auto"/>
<text x="98" y="308" font-family="Georgia, serif" font-size="10" fill="#2563a8" font-style="italic" style="fill:rgb(37, 99, 168);stroke:none;color:rgb(255, 255, 255);stroke-width:1px;stroke-linecap:butt;stroke-linejoin:miter;opacity:1;font-family:Georgia, serif;font-size:10px;font-weight:400;font-style:italic;text-anchor:start;dominant-baseline:auto">½ℏω</text>

<!-- Title -->
<text x="340" y="348" font-family="Georgia, serif" font-size="15" fill="#1a1a1a" text-anchor="middle" letter-spacing="1" style="fill:rgb(26, 26, 26);stroke:none;color:rgb(255, 255, 255);stroke-width:1px;stroke-linecap:butt;stroke-linejoin:miter;opacity:1;font-family:Georgia, serif;font-size:15px;font-weight:400;text-anchor:middle;dominant-baseline:auto">3rd Year</text>
</svg>